<svg height="448pt" viewBox="0 0 448 448" width="448pt" xmlns="http://www.w3.org/2000/svg"><path d="m280 408c0-4.417969-3.582031-8-8-8h-96c-4.417969 0-8 3.582031-8 8s3.582031 8 8 8h96c4.417969 0 8-3.582031 8-8zm0 0"/><path d="m204.6875 288 11.3125-11.3125v-121.375l-11.3125-11.3125h-17.375l-3.3125 3.3125v9.375l13.65625 13.65625c1.5 1.5 2.34375 3.535156 2.34375 5.65625v16h-16v-12.6875l-10.457031-10.457031-21.542969 5.390625v9.753906h8v16h-14.113281l-9.886719 4.945312v21.285157l13.839844 4.617187 10.160156-10.160156v-4.6875h16v8c0 2.121094-.84375 4.15625-2.34375 5.65625l-13.65625 13.65625v17.375l3.3125 3.3125h12.6875c2.675781 0 5.171875 1.335938 6.65625 3.558594l13.625 20.441406zm-18.34375-34.34375c-1.5-1.5-2.34375-3.535156-2.34375-5.65625v-24h16v20.6875l5.65625 5.65625-11.3125 11.3125zm0 0"/><path d="m402.710938 180.222656c-2.230469-9.109375-5.144532-18.039062-8.71875-26.710937-2.640626-6.273438-5.632813-12.390625-8.960938-18.328125-1.222656-2.207032-2.398438-4.457032-3.695312-6.609375l-2.886719-4.726563 27.199219-34.953125-46.570313-46.558593-34.941406 27.199218-4.730469-2.886718c-2.125-1.304688-4.359375-2.449219-6.542969-3.65625-5.957031-3.347657-12.101562-6.351563-18.398437-9-8.671875-3.578126-17.601563-6.492188-26.710938-8.71875l-5.355468-1.273438-5.460938-44h-65.875l-5.460938 44-5.355468 1.304688c-9.109375 2.226562-18.039063 5.140624-26.710938 8.71875-6.296875 2.648437-12.441406 5.652343-18.398437 9-2.183594 1.207031-4.417969 2.351562-6.542969 3.65625l-4.730469 2.886718-34.941406-27.199218-46.570313 46.5625 27.199219 34.949218-2.886719 4.730469c-1.3125 2.152344-2.472656 4.398437-3.695312 6.605469-3.328125 5.9375-6.320312 12.054687-8.960938 18.328125-3.574218 8.671875-6.488281 17.601562-8.71875 26.714843l-1.289062 5.34375-44 5.460938v65.875l44 5.488281 1.304688 5.351563c2.230468 9.117187 5.148437 18.054687 8.726562 26.734375 2.515625 5.976562 5.34375 11.8125 8.480469 17.488281 1.359375 2.488281 2.671875 5.015625 4.152343 7.433594l2.886719 4.726562-27.199219 34.945313 46.570313 46.566406 34.949219-27.199219 4.730468 2.902344c.34375.210938.703126.402344 1.054688.609375 3.007812 1.800781 6.070312 3.519531 9.183594 5.152344 4.0625 2.132812 8.21875 4.101562 12.464844 5.910156-4.628907-4.4375-7.257813-10.566406-7.289063-16.980469-.027344-6.410156 2.546875-12.5625 7.136719-17.042968 2.476562-2.519532 5.507812-4.425782 8.847656-5.574219v-17.449219c-55.0625-29.367188-83.074219-92.441406-67.9375-152.984375 15.132812-60.542969 69.53125-103.015625 131.9375-103.015625s116.804688 42.472656 131.9375 103.015625c15.136719 60.542969-12.875 123.617187-67.9375 152.984375v17.449219c9.5625 3.378906 15.96875 12.40625 16 22.550781.03125 6.359375-2.515625 12.460938-7.054688 16.910156 4.160157-1.78125 8.234376-3.714844 12.222657-5.804687 3.121093-1.632813 6.1875-3.351563 9.199219-5.152344.34375-.210937.703124-.402344 1.046874-.609375l4.730469-2.902344 34.953125 27.199219 46.566406-46.570313-27.199218-34.941406 2.886718-4.730468c1.480469-2.398438 2.792969-4.941407 4.152344-7.429688 3.140625-5.671875 5.976563-11.507812 8.496094-17.480469 3.582031-8.679687 6.5-17.617187 8.726562-26.734375l1.273438-5.355468 44-5.488282v-65.847656l-44-5.460938zm-338.710938 51.777344h-16v-16h16zm41.207031 99.480469 11.3125 11.3125-11.3125 11.3125-11.3125-11.3125zm0-214.960938-11.3125-11.3125 11.3125-11.3125 11.3125 11.3125zm126.792969-52.519531h-16v-16h16zm110.792969 52.519531-11.3125-11.3125 11.3125-11.3125 11.3125 11.3125zm0 237.601563-11.3125-11.3125 11.3125-11.3125 11.3125 11.3125zm57.207031-122.121094h-16v-16h16zm0 0"/><path d="m168 384h112c2.085938.019531 4.09375-.8125 5.550781-2.304688 1.570313-1.476562 2.457031-3.539062 2.449219-5.695312 0-4.417969-3.582031-8-8-8h-112c-2.085938-.019531-4.09375.8125-5.550781 2.304688-1.570313 1.476562-2.457031 3.539062-2.449219 5.695312 0 4.417969 3.582031 8 8 8zm0 0"/><path d="m185.472656 432c3.378906 9.554688 12.394532 15.957031 22.527344 16h32c10.132812-.042969 19.148438-6.445312 22.527344-16zm0 0"/><path d="m251.71875 288 13.601562-20.441406c1.488282-2.230469 3.996094-3.566406 6.679688-3.558594h12.6875l3.3125-3.3125v-17.375l-13.65625-13.65625c-1.5-1.5-2.34375-3.535156-2.34375-5.65625v-8h16v4.6875l10.160156 10.160156 13.839844-4.617187v-21.285157l-9.886719-4.945312h-14.113281v-16h8v-9.753906l-21.542969-5.390625-10.457031 10.457031v12.6875h-16v-16c0-2.121094.84375-4.15625 2.34375-5.65625l13.65625-13.65625v-9.375l-3.3125-3.3125h-17.375l-11.3125 11.3125v121.375l11.3125 11.3125zm-3.71875-43.3125v-20.6875h16v24c0 2.121094-.84375 4.15625-2.34375 5.65625l-8 8-11.3125-11.3125zm0 0"/><path d="m272 352v-20.878906c0-3.066406 1.746094-5.863282 4.503906-7.199219 50.261719-24.457031 76.980469-80.378906 64.433594-134.847656-12.550781-54.464844-61.042969-93.058594-116.9375-93.058594s-104.386719 38.59375-116.9375 93.058594c-12.546875 54.46875 14.171875 110.390625 64.433594 134.847656 2.757812 1.335937 4.503906 4.132813 4.503906 7.199219v20.878906zm-100.28125-72h-11.71875c-2.121094 0-4.15625-.84375-5.65625-2.34375l-8-8c-1.5-1.5-2.34375-3.535156-2.34375-5.65625v-18.230469l-18.527344-6.175781c-3.269531-1.089844-5.472656-4.148438-5.472656-7.59375v-32c0-3.03125 1.710938-5.804688 4.425781-7.160156l11.574219-5.785156v-19.054688c0-3.667969 2.496094-6.867188 6.054688-7.761719l25.945312-6.484375v-9.753906c0-2.121094.84375-4.15625 2.34375-5.65625l8-8c1.5-1.5 3.535156-2.34375 5.65625-2.34375h24c2.121094 0 4.15625.84375 5.65625 2.34375l10.34375 10.34375 10.34375-10.34375c1.5-1.5 3.535156-2.34375 5.65625-2.34375h24c2.121094 0 4.15625.84375 5.65625 2.34375l8 8c1.5 1.5 2.34375 3.535156 2.34375 5.65625v9.753906l25.945312 6.484375c3.558594.894531 6.054688 4.09375 6.054688 7.761719v19.054688l11.574219 5.785156c2.714843 1.355468 4.425781 4.128906 4.425781 7.160156v32c0 3.445312-2.203125 6.503906-5.472656 7.59375l-18.527344 6.175781v18.230469c0 2.121094-.84375 4.15625-2.34375 5.65625l-8 8c-1.5 1.5-3.535156 2.34375-5.65625 2.34375h-11.71875l-13.601562 20.441406c-1.488282 2.230469-3.996094 3.566406-6.679688 3.558594h-16c-2.121094 0-4.15625-.84375-5.65625-2.34375l-10.34375-10.34375-10.34375 10.34375c-1.5 1.5-3.535156 2.34375-5.65625 2.34375h-16c-2.675781 0-5.171875-1.335938-6.65625-3.558594zm0 0"/></svg>